<svg width="24" height="24" viewBox="0 0 24 24" fill="none" xmlns="http://www.w3.org/2000/svg">
<mask id="mask0_9_48" style="mask-type:alpha" maskUnits="userSpaceOnUse" x="0" y="0" width="24" height="24">
<rect width="24" height="24" fill="#D9D9D9"/>
</mask>
<g mask="url(#mask0_9_48)">
<path d="M12.25 10.825L13.175 11.75L18.6 6.325L17.675 5.4L12.25 10.825ZM5 19H5.925L11.75 13.175L10.825 12.25L5 18.075V19ZM13.875 13.875L10.125 10.125L14.3 5.95L13.575 5.225L8.1 10.7L6.7 9.3L12.15 3.825C12.55 3.425 13.0208 3.225 13.5625 3.225C14.1042 3.225 14.575 3.425 14.975 3.825L15.7 4.55L16.95 3.3C17.15 3.1 17.3875 3 17.6625 3C17.9375 3 18.175 3.1 18.375 3.3L20.7 5.625C20.9 5.825 21 6.0625 21 6.3375C21 6.6125 20.9 6.85 20.7 7.05L13.875 13.875ZM6.75 21H3V17.25L10.125 10.125L13.875 13.875L6.75 21Z" fill="#1C1B1F"/>
</g>
</svg>
